<?xml version="1.0" encoding="utf-8"?>
<svg aria-hidden="true" style="position: absolute; width: 0; height: 0; overflow: hidden;" version="1.1" xmlns="http://www.w3.org/2000/svg" xmlns:xlink="http://www.w3.org/1999/xlink">
    <defs>
        <!--=================================================================-->
        <!--
        Bytesize - Tiny style-controlled SVG iconset
        https://danklammer.com/bytesize-icons/
        -->
		<symbol id="bytesize-home" viewBox="0 0 32 32" fill="none" stroke="currentcolor" stroke-linecap="round" stroke-linejoin="round" stroke-width="2">
			<path d="M12 20 L12 30 4 30 4 12 16 2 28 12 28 30 20 30 20 20 Z" />
		</symbol>
		<symbol id="bytesize-settings" viewBox="0 0 32 32" fill="none" stroke="currentcolor" stroke-linecap="round" stroke-linejoin="round" stroke-width="2">
			<path d="M13 2 L13 6 11 7 8 4 4 8 7 11 6 13 2 13 2 19 6 19 7 21 4 24 8 28 11 25 13 26 13 30 19 30 19 26 21 25 24 28 28 24 25 21 26 19 30 19 30 13 26 13 25 11 28 8 24 4 21 7 19 6 19 2 Z" />
			<circle cx="16" cy="16" r="4" />
		</symbol>
		<symbol id="bytesize-logout" viewBox="0 0 32 32" fill="none" stroke="currentcolor" stroke-linecap="round" stroke-linejoin="round" stroke-width="2">
			<path d="M28 16 L8 16 M20 8 L28 16 20 24 M11 28 L3 28 3 4 11 4" />
		</symbol>
		<symbol id="bytesize-external" viewBox="0 0 32 32" fill="none" stroke="currentcolor" stroke-linecap="round" stroke-linejoin="round" stroke-width="2">
			<path d="M14 9 L3 9 3 29 23 29 23 18 M18 4 L28 4 28 14 M28 4 L14 18" />
		</symbol>
        <!--=================================================================-->
    </defs>
</svg>